<svg id="SvgjsSvg1013" width="50%" height="50%" xmlns="http://www.w3.org/2000/svg" version="1.1" xlink="http://www.w3.org/1999/xlink" xmlns:svgjs="http://svgjs.com/svgjs" preserveAspectRatio="xMidYMid meet" viewBox="0 0.0000035548034702514997 171.40945434570312 146.99998474121094" overflow="visible"><defs id="SvgjsDefs1014"></defs><g id="SvgjsG1015" transform="scale(0.6277355265754206)" opacity="1"><g id="SvgjsG1016" class="RMU43ubOA" transform="translate(95.571, 0.0000832097199907638) scale(1.4250077319182293)" light-content="false" non-strokable="false" fill="#1c1c1c"><path d="M33.2 10.707h-9.398a6.367 6.367 0 0 0 3.544 1.961h2.312a6.365 6.365 0 0 0 3.542-1.961zm1.69-4.318c0-.542-.074-1.062-.201-1.565H22.312a6.404 6.404 0 0 0-.201 1.565c0 .134.012.265.021.396h12.737c.009-.131.021-.263.021-.396zm-.531-2.545a6.388 6.388 0 0 0-1.329-1.96h-9.057a6.402 6.402 0 0 0-1.33 1.96h11.716zm-.419 5.882a6.313 6.313 0 0 0 .796-1.96H22.265c.155.705.43 1.365.796 1.96H33.94zM31.763.903a6.343 6.343 0 0 0-6.524 0h6.524zm-.078 48.039h6.862v1.961h-6.862zm12.745-8.823h-4.902v1.961h4.9l.002-.02v-1.941zM19.919 28.354h15.686v1.961H19.919zm23.387 14.705h-4.713c.354 1.245 1.353 1.88 2.358 1.88 1.01 0 2.004-.635 2.355-1.88zM29.724 46h6.862v1.961h-6.862zM20.9 25.413h15.686v1.96H20.9zm17.647 11.764h4.902v1.961h-4.902zM21.88 40.119h15.686v1.961H21.88zm-.98-2.942h15.686v1.961H20.9zm0-2.941h15.686v1.961H20.9zm0-2.941h15.686v1.961H20.9zm8.824 32.353h6.862v1.961h-6.862zm-.981 8.823h6.862v1.961h-6.862zm8.055 2.942h-7.032c.14.768.522 1.447 1.067 1.961h4.897a3.57 3.57 0 0 0 1.068-1.961zm-8.75 0h-7.035c.14.768.523 1.447 1.069 1.961h4.899a3.58 3.58 0 0 0 1.067-1.961zM19.919 42.06v-1.942h-4.902v1.942c0 .006.28.013.28.02h4.622v-.02zm9.805 27.47h6.862v1.961h-6.862zm-.981-8.823h6.862v1.961h-6.862zm.981-2.942h6.862v1.961h-6.862zm.98-2.94h6.862v1.96h-6.862zm7.843-20.589h4.902v1.961h-4.902zm-7.843 32.353h6.862v1.96h-6.862zm0-14.706h6.862v1.961h-6.862zM20.9 57.765h6.863v1.961H20.9zm1.961-8.823h6.863v1.961h-6.863zm-.981 2.941h6.863v1.961H21.88zm0 2.942h6.863v1.96H21.88zM20.9 46h6.863v1.961H20.9zm6.863-.98h8.823v-1.961H20.9v1.961zm10.784-13.725h4.902v1.961h-4.902zM20.9 69.53h6.863v1.961H20.9zm-.981 2.941h6.863v1.961h-6.863zm0-11.764h6.863v1.961h-6.863zm.981 2.941h6.863v1.961H20.9zm.98 2.941h6.863v1.96H21.88zm-5.047-21.671c1.012 0 2.014-.628 2.371-1.859h-4.742c.357 1.233 1.358 1.859 2.371 1.859zM42.658 18.55a8.05 8.05 0 0 0-1.191-1.961h-25.22a7.94 7.94 0 0 0-1.183 1.961h27.594zm2.696 2.941a9.964 9.964 0 0 0-.38-1.96H16.68a9.764 9.764 0 0 0-.365 1.96h29.039zm-4.877-5.883c-1.158-.93-2.651-1.499-4.484-1.499l-14.32-.006c-1.753 0-3.247.559-4.426 1.505h23.23zm-26.44 21.569h4.902v1.961h-4.902zm23.529-8.823h4.902v1.961h-4.902zm.981-2.941h4.902v1.96h-4.902zm-24.51 5.882h4.902v1.961h-4.902zm0 2.941h4.902v1.961h-4.902zm0-8.823h4.902v1.96h-4.902zm5.882-.981v-.98h1.961v.98h15.686v-.98h1.961v.98h4.902V22.51l-.002-.04h-29.41v1.961h4.902zm-6.862 3.922h4.902v1.961h-4.902zM4.172 39.138l-.373-1.961h-.998l.373 1.961zm-.559-2.941l-.374-1.961h-.998l.374 1.961zm1.12 5.883l-.374-1.961h-.998l.373 1.961zm1.12 5.881L5.479 46h-.998l.373 1.961zm-.56-2.941l-.373-1.961h-.998l.373 1.961zM1.931 27.373l-.373-1.96H.56l.373 1.96zm1.121 5.883l-.374-1.961H1.68l.374 1.961zm-1.68-8.824l-.374-1.961H0l.374 1.961zm1.12 5.882l-.374-1.96h-.997l.373 1.96zm3.922 20.589l-.374-1.961h-.998l.374 1.961zm.56 2.941L6.6 51.883h-.998l.373 1.961zm4.482 23.53l-.374-1.961h-.998l.374 1.961zM7.535 56.785l-.374-1.96h-.998l.373 1.96zm2.8 14.706l-.374-1.961h-.997l.373 1.961zm1.681 8.824l-.374-1.961h-.998l.374 1.961zm-1.121-5.883l-.374-1.961h-.998l.374 1.961zm-2.24-11.765l-.375-1.96h-.998l.374 1.96zm-.561-2.941l-.373-1.961h-.998l.373 1.961zm1.68 8.823l-.373-1.96h-.998l.373 1.96zm-.559-2.94l-.374-1.961h-.998l.374 1.961zM53.191 45.02l.374-1.961h-.998l-.373 1.961zm1.682-8.823l.373-1.961h-.997l-.375 1.961zm-.561 2.941l.374-1.961h-.998l-.374 1.961zm1.122-5.882l.372-1.961h-.998l-.373 1.961zm-1.682 8.824l.374-1.961h-.998l-.374 1.961zm2.241-11.766l.373-1.96h-.998l-.375 1.96zm-3.361 17.647L53.005 46h-.999l-.373 1.961zm4.481-23.529l.373-1.961h-.997l-.374 1.961zm-.56 2.941l.374-1.96h-.999l-.373 1.96zm-9.524 50.001l.374-1.961h-.998l-.374 1.961zm1.12-5.883l.374-1.961h-.999l-.374 1.961zm1.122-5.882l.373-1.961h-.998l-.374 1.961zm2.8-14.706l.374-1.961h-.999l-.374 1.961zm-5.602 29.412l.373-1.961h-.997l-.374 1.961zm1.122-5.883l.371-1.961h-.997l-.374 1.961zm1.119-5.883l.373-1.96h-.998l-.374 1.96zm2.241-11.764l.373-1.96h-.997l-.374 1.96zm-1.121 5.882l.374-1.96h-.998l-.374 1.96zm1.683-8.823l.371-1.961h-.998l-.373 1.961zm-1.122 5.882l.373-1.961h-.998l-.373 1.961zM47.37 81.294H10.116l-3.922 4.902h45.098l-3.922-4.902zm-32.352 2.942a.98.98 0 1 1 0-1.96.98.98 0 0 1 0 1.96zm2.941.98a.98.98 0 1 1 0-1.96.98.98 0 0 1 0 1.96zm18.627 0H20.9v-2.941h15.686v2.941zm2.941 0a.979.979 0 1 1 0-1.96.979.979 0 1 1 0 1.96zm2.942-.98a.979.979 0 1 1 0-1.96.979.979 0 1 1 0 1.96z"></path></g><g id="SvgjsG1017" class="text" transform="translate(135.69000244140625, 187.89005404547453) scale(1)" light-content="false" fill="#2e2e2e"><path d="M-119.07 -41.88L-119.07 -3.12L-126.93 -2.58L-126.93 0L-105.33 0L-105.33 -2.58L-113.91 -3.12L-113.91 -41.88L-102.33 -41.52L-100.65 -29.34L-97.47 -29.34L-98.13 -44.58L-134.67 -44.58L-135.69 -29.34L-132.39 -29.34L-130.47 -41.52Z M-81.87 -41.34L-81.87 -3.12L-87.03 -2.58L-87.03 0L-54.51 0L-52.65 -10.14L-55.53 -11.04L-58.59 -3.54L-76.95 -3.06L-76.95 -21.54L-65.91 -21.36L-65.13 -16.26L-62.13 -16.26L-62.13 -29.52L-65.13 -29.52L-65.91 -24.54L-76.95 -24.36L-76.95 -41.82L-60.87 -41.52L-59.25 -35.76L-56.37 -35.76L-57.21 -44.58L-86.91 -44.58L-86.91 -42Z M-33.51 -2.22C-30.43 -0.3 -26.75 0.66 -22.47 0.66C-20.51 0.66 -18.87 0.53 -17.55 0.27C-16.23 0.01 -14.85 -0.36 -13.41 -0.84C-12.05 -1.32 -10.89 -1.58 -9.93 -1.62L-8.43 -9.66L-11.37 -10.08L-13.77 -4.44C-14.65 -3.72 -15.73 -3.17 -17.01 -2.79C-18.29 -2.41 -20.07 -2.22 -22.35 -2.22C-25.63 -2.22 -28.39 -3.17 -30.63 -5.07C-32.87 -6.97 -34.54 -9.5 -35.64 -12.66C-36.74 -15.82 -37.29 -19.28 -37.29 -23.04C-37.29 -27.04 -36.66 -30.48 -35.4 -33.36C-34.14 -36.24 -32.41 -38.43 -30.21 -39.93C-28.01 -41.43 -25.53 -42.18 -22.77 -42.18C-20.53 -42.18 -18.63 -42 -17.07 -41.64C-15.51 -41.28 -14.43 -40.84 -13.83 -40.32L-12.51 -33.36L-9.39 -33.36L-8.91 -43.14C-9.19 -43.22 -9.91 -43.4 -11.07 -43.68C-12.23 -43.96 -13.76 -44.26 -15.66 -44.58C-17.56 -44.9 -19.53 -45.06 -21.57 -45.06C-25.57 -45.06 -29.19 -44.11 -32.43 -42.21C-35.67 -40.31 -38.23 -37.64 -40.11 -34.2C-41.99 -30.76 -42.93 -26.86 -42.93 -22.5C-42.93 -17.86 -42.13 -13.8 -40.53 -10.32C-38.93 -6.84 -36.59 -4.14 -33.51 -2.22Z M8.01 -41.34L8.01 -3.12L2.85 -2.58L2.85 0L10.53 0C11.89 0 13.81 0.08 16.29 0.24C18.45 0.4 19.99 0.48 20.91 0.48C25.23 0.48 29.06 -0.53 32.4 -2.55C35.74 -4.57 38.35 -7.4 40.23 -11.04C42.11 -14.68 43.05 -18.88 43.05 -23.64C43.05 -30.36 41.26 -35.61 37.68 -39.39C34.1 -43.17 28.57 -45.06 21.09 -45.06C19.89 -45.06 18.13 -44.98 15.81 -44.82C13.49 -44.66 11.71 -44.58 10.47 -44.58L3.21 -44.58L3.21 -42ZM18.99 -2.46C16.59 -2.46 14.57 -2.62 12.93 -2.94L12.93 -41.82C13.29 -41.82 13.99 -41.86 15.03 -41.94C16.71 -42.1 18.21 -42.18 19.53 -42.18C31.69 -42.18 37.77 -35.64 37.77 -22.56C37.77 -18.32 37.06 -14.7 35.64 -11.7C34.22 -8.7 32.25 -6.42 29.73 -4.86C27.21 -3.3 24.31 -2.5 21.03 -2.46Z M69.27 -45L54.39 -3.12L50.55 -2.58L50.55 0L64.05 0L64.05 -2.58L58.71 -3.18L61.89 -12.66L80.61 -12.66L83.79 -3.12L78.51 -2.58L78.51 0L93.15 0L93.15 -2.58L89.25 -3.12L74.19 -45ZM72.75 -35.76L79.53 -15.78L62.91 -15.78L69.45 -35.58L71.07 -41.46Z M115.41 -17.16L115.41 -3.12L108.75 -2.58L108.75 0L127.29 0L127.29 -2.58L120.45 -3.18L120.45 -17.22L133.41 -41.34L137.37 -42L137.37 -44.58L124.35 -44.58L124.35 -42L129.39 -41.34L120.69 -24.36L118.35 -19.56L116.19 -24.36L107.13 -41.34L112.17 -42L112.17 -44.58L97.83 -44.58L97.83 -42L101.55 -41.28Z"></path></g><g id="SvgjsG1018" class="text" transform="translate(136.6349987792969, 228.33005335882905) scale(1)" light-content="false" fill="#1c1c1c"><path d="M-123.26 -0.89C-122.03 -0.12 -120.56 0.26 -118.85 0.26C-118.06 0.26 -117.41 0.21 -116.88 0.11C-116.35 0 -115.8 -0.14 -115.22 -0.34C-114.68 -0.53 -114.22 -0.63 -113.83 -0.65L-113.23 -3.86L-114.41 -4.03L-115.37 -1.78C-115.72 -1.49 -116.15 -1.27 -116.66 -1.12C-117.18 -0.96 -117.89 -0.89 -118.8 -0.89C-120.11 -0.89 -121.22 -1.27 -122.11 -2.03C-123.01 -2.79 -123.68 -3.8 -124.12 -5.06C-124.56 -6.33 -124.78 -7.71 -124.78 -9.22C-124.78 -10.82 -124.52 -12.19 -124.02 -13.34C-123.52 -14.5 -122.82 -15.37 -121.94 -15.97C-121.06 -16.57 -120.07 -16.87 -118.97 -16.87C-118.07 -16.87 -117.31 -16.8 -116.69 -16.66C-116.06 -16.51 -115.63 -16.34 -115.39 -16.13L-114.86 -13.34L-113.62 -13.34L-113.42 -17.26C-113.54 -17.29 -113.82 -17.36 -114.29 -17.47C-114.75 -17.58 -115.36 -17.7 -116.12 -17.83C-116.88 -17.96 -117.67 -18.02 -118.49 -18.02C-120.09 -18.02 -121.54 -17.64 -122.83 -16.88C-124.13 -16.12 -125.15 -15.06 -125.9 -13.68C-126.66 -12.3 -127.03 -10.74 -127.03 -9C-127.03 -7.14 -126.71 -5.52 -126.07 -4.13C-125.43 -2.74 -124.5 -1.66 -123.26 -0.89Z M-110.36 -10.42C-110.95 -9.36 -111.24 -8.14 -111.24 -6.74C-111.24 -4.7 -110.76 -3.02 -109.79 -1.7C-108.82 -0.39 -107.33 0.26 -105.31 0.26C-104.27 0.26 -103.28 -0.02 -102.32 -0.58C-101.37 -1.14 -100.6 -1.94 -100.02 -3C-99.44 -4.06 -99.14 -5.28 -99.14 -6.67C-99.14 -8.72 -99.63 -10.4 -100.6 -11.71C-101.56 -13.02 -103.06 -13.68 -105.07 -13.68C-106.11 -13.68 -107.11 -13.4 -108.06 -12.84C-109.01 -12.28 -109.78 -11.47 -110.36 -10.42ZM-102.34 -2.4C-103.01 -1.46 -103.96 -0.98 -105.19 -0.98C-106.5 -0.98 -107.48 -1.53 -108.11 -2.63C-108.74 -3.72 -109.06 -5.14 -109.06 -6.89C-109.06 -8.7 -108.72 -10.07 -108.04 -11.02C-107.36 -11.96 -106.4 -12.43 -105.17 -12.43C-103.86 -12.43 -102.89 -11.88 -102.26 -10.78C-101.64 -9.67 -101.33 -8.26 -101.33 -6.53C-101.33 -4.72 -101.66 -3.34 -102.34 -2.4Z M-95.45 -11.74L-95.45 -1.22L-97.06 -1.03L-97.06 0L-91.75 0L-91.75 -1.03L-93.5 -1.22L-93.5 -10.54C-92.96 -10.97 -92.32 -11.34 -91.57 -11.66C-90.83 -11.98 -90.14 -12.14 -89.5 -12.14C-88.74 -12.14 -88.17 -12 -87.78 -11.7C-87.39 -11.4 -87.12 -10.97 -86.99 -10.39C-86.85 -9.82 -86.78 -9.02 -86.78 -8.02L-86.78 -1.2L-88.39 -1.03L-88.39 0L-83.04 0L-83.04 -1.03L-84.84 -1.2L-84.84 -7.99C-84.84 -9.35 -84.95 -10.44 -85.16 -11.24C-85.38 -12.05 -85.76 -12.65 -86.32 -13.04C-86.87 -13.44 -87.66 -13.63 -88.68 -13.63C-89.51 -13.63 -90.42 -13.42 -91.39 -12.98C-92.37 -12.55 -93.15 -12.08 -93.74 -11.57L-93.72 -12.17L-93.72 -13.22L-94.18 -13.61L-94.25 -13.61L-97.3 -13.22L-97.3 -12.14Z M-79.9 -18.14L-79.9 -1.2L-81.41 -1.03L-81.41 0L-76.2 0L-76.2 -1.03L-77.98 -1.22L-77.98 -10.56C-77.42 -10.99 -76.77 -11.36 -76.03 -11.68C-75.3 -11.99 -74.61 -12.14 -73.97 -12.14C-73.2 -12.14 -72.62 -12 -72.22 -11.71C-71.82 -11.42 -71.55 -10.99 -71.41 -10.42C-71.28 -9.84 -71.21 -9.04 -71.21 -8.02L-71.21 -1.22L-72.89 -1.03L-72.89 0L-67.51 0L-67.51 -1.03L-69.26 -1.22L-69.26 -7.99C-69.26 -9.37 -69.38 -10.46 -69.6 -11.27C-69.82 -12.08 -70.22 -12.67 -70.78 -13.06C-71.34 -13.44 -72.12 -13.63 -73.13 -13.63C-74.02 -13.63 -74.94 -13.42 -75.86 -12.98C-76.79 -12.55 -77.51 -12.1 -78.02 -11.64L-77.98 -13.63L-77.98 -19.34L-78.43 -19.66L-78.48 -19.66L-82.03 -19.25L-82.03 -18.36Z M-64.09 -1.64C-63.09 -0.37 -61.66 0.26 -59.81 0.26C-58.91 0.26 -58.02 0.1 -57.13 -0.23C-56.24 -0.56 -55.57 -0.96 -55.1 -1.44L-55.49 -2.33C-55.87 -1.99 -56.42 -1.7 -57.12 -1.46C-57.82 -1.22 -58.51 -1.1 -59.18 -1.1C-60.56 -1.1 -61.63 -1.64 -62.39 -2.7C-63.15 -3.76 -63.53 -5.14 -63.53 -6.82L-54.98 -6.82C-54.89 -7.23 -54.84 -7.94 -54.84 -8.93C-54.9 -10.46 -55.33 -11.64 -56.12 -12.46C-56.92 -13.27 -58.02 -13.68 -59.45 -13.68C-60.62 -13.68 -61.67 -13.39 -62.6 -12.8C-63.54 -12.22 -64.27 -11.4 -64.8 -10.34C-65.33 -9.29 -65.59 -8.08 -65.59 -6.72C-65.59 -4.61 -65.09 -2.92 -64.09 -1.64ZM-57 -7.94L-63.5 -7.94C-63.31 -10.95 -62.12 -12.46 -59.93 -12.46C-58.92 -12.46 -58.17 -12.14 -57.68 -11.52C-57.2 -10.9 -56.94 -10.06 -56.93 -9C-56.93 -8.63 -56.95 -8.28 -57 -7.94Z M-52.19 -10.14C-52.69 -9.06 -52.94 -7.87 -52.94 -6.58C-52.94 -4.78 -52.52 -3.27 -51.66 -2.03C-50.8 -0.79 -49.59 -0.05 -48.02 0.19C-47.85 0.48 -47.69 0.82 -47.54 1.22C-47.4 1.62 -47.33 2.02 -47.33 2.4C-47.33 3.09 -47.47 3.54 -47.76 3.77C-48.05 3.99 -48.51 4.1 -49.15 4.1C-49.3 4.1 -49.48 4.08 -49.69 4.04C-49.91 4 -50.1 3.96 -50.26 3.91L-50.28 5.33C-50.06 5.41 -49.78 5.48 -49.46 5.54C-49.14 5.61 -48.85 5.64 -48.58 5.64C-47.62 5.64 -46.89 5.46 -46.39 5.09C-45.9 4.72 -45.65 4.11 -45.65 3.26C-45.65 2.72 -45.78 2.18 -46.03 1.64C-46.29 1.11 -46.58 0.65 -46.9 0.26C-46.11 0.25 -45.32 0.07 -44.52 -0.26C-43.72 -0.6 -43.1 -0.99 -42.65 -1.44L-43.03 -2.23C-43.45 -1.94 -43.97 -1.69 -44.6 -1.46C-45.24 -1.24 -45.89 -1.13 -46.56 -1.13C-47.84 -1.13 -48.88 -1.64 -49.68 -2.66C-50.48 -3.69 -50.88 -5.19 -50.88 -7.18C-50.88 -8.84 -50.51 -10.15 -49.76 -11.11C-49.02 -12.07 -48.02 -12.55 -46.78 -12.55C-45.5 -12.55 -44.81 -12.31 -44.71 -11.83L-44.21 -9.53L-43.01 -9.53L-42.91 -12.96C-43.34 -13.14 -43.86 -13.3 -44.45 -13.45C-45.04 -13.6 -45.65 -13.68 -46.27 -13.68C-47.71 -13.68 -48.93 -13.36 -49.93 -12.72C-50.93 -12.08 -51.68 -11.22 -52.19 -10.14Z M-38.02 -6.88C-39.55 -6.18 -40.32 -5.06 -40.32 -3.5C-40.32 -2.27 -39.94 -1.34 -39.18 -0.7C-38.42 -0.06 -37.46 0.26 -36.31 0.26C-35.45 0.26 -34.68 0.07 -34 -0.32C-33.32 -0.72 -32.69 -1.17 -32.11 -1.68L-32.11 -0.79C-32.11 -0.36 -32.04 -0.08 -31.9 0.04C-31.75 0.16 -31.49 0.22 -31.1 0.22C-30.5 0.22 -29.75 0.1 -28.87 -0.14L-28.87 -1.03L-30.36 -1.03L-30.36 -8.95C-30.36 -10.09 -30.5 -10.99 -30.78 -11.66C-31.06 -12.34 -31.52 -12.82 -32.15 -13.13C-32.78 -13.43 -33.64 -13.58 -34.73 -13.58C-35.4 -13.58 -36.1 -13.47 -36.82 -13.25C-37.54 -13.02 -38.18 -12.77 -38.74 -12.48C-39.3 -12.19 -39.66 -11.97 -39.84 -11.81L-39.31 -10.75C-38.69 -11.1 -38.04 -11.4 -37.38 -11.65C-36.72 -11.9 -35.98 -12.02 -35.16 -12.02C-34.41 -12.02 -33.82 -11.92 -33.41 -11.7C-32.99 -11.48 -32.7 -11.14 -32.53 -10.67C-32.36 -10.2 -32.28 -9.55 -32.28 -8.74L-32.28 -7.99C-34.57 -7.94 -36.48 -7.57 -38.02 -6.88ZM-33.98 -1.58C-34.61 -1.3 -35.14 -1.15 -35.59 -1.15C-36.39 -1.15 -37.02 -1.36 -37.49 -1.76C-37.95 -2.17 -38.18 -2.83 -38.18 -3.74C-38.18 -4.69 -37.68 -5.44 -36.68 -6C-35.68 -6.56 -34.22 -6.85 -32.28 -6.86L-32.28 -2.62C-32.79 -2.22 -33.36 -1.87 -33.98 -1.58Z M-20.53 -10.42C-21.12 -9.36 -21.41 -8.14 -21.41 -6.74C-21.41 -4.7 -20.92 -3.02 -19.96 -1.7C-18.99 -0.39 -17.5 0.26 -15.48 0.26C-14.44 0.26 -13.44 -0.02 -12.49 -0.58C-11.54 -1.14 -10.77 -1.94 -10.19 -3C-9.6 -4.06 -9.31 -5.28 -9.31 -6.67C-9.31 -8.72 -9.8 -10.4 -10.76 -11.71C-11.73 -13.02 -13.22 -13.68 -15.24 -13.68C-16.28 -13.68 -17.28 -13.4 -18.23 -12.84C-19.18 -12.28 -19.95 -11.47 -20.53 -10.42ZM-12.5 -2.4C-13.18 -1.46 -14.13 -0.98 -15.36 -0.98C-16.67 -0.98 -17.64 -1.53 -18.28 -2.63C-18.91 -3.72 -19.22 -5.14 -19.22 -6.89C-19.22 -8.7 -18.88 -10.07 -18.2 -11.02C-17.52 -11.96 -16.57 -12.43 -15.34 -12.43C-14.02 -12.43 -13.06 -11.88 -12.43 -10.78C-11.81 -9.67 -11.5 -8.26 -11.5 -6.53C-11.5 -4.72 -11.83 -3.34 -12.5 -2.4Z M0.65 -11.88L0.65 -1.22L-1.46 -1.03L-1.46 0L5.33 0L5.33 -1.03L2.59 -1.2L2.59 -11.88L6.07 -11.88L6.07 -13.3L2.59 -13.3L2.59 -15.1C2.59 -16.17 2.78 -16.93 3.17 -17.38C3.55 -17.82 4.17 -18.05 5.02 -18.05C5.53 -18.05 5.98 -18 6.37 -17.9C6.76 -17.81 7.02 -17.71 7.15 -17.62L7.15 -19.58C6.77 -19.71 6.32 -19.78 5.81 -19.78C4.94 -19.78 4.12 -19.54 3.32 -19.06C2.53 -18.58 1.89 -17.93 1.39 -17.12C0.9 -16.32 0.65 -15.43 0.65 -14.47L0.65 -13.3L-1.78 -12.84L-1.78 -11.88Z M18.12 0C18.31 0.14 18.62 0.22 19.03 0.22C19.51 0.22 19.94 0.16 20.33 0.05C20.71 -0.06 20.94 -0.13 21.02 -0.14L21.05 -1.06L19.56 -1.06L19.56 -13.32L19.01 -13.61L18.98 -13.61L15.79 -13.3L15.79 -12.41L17.62 -12L17.62 -2.74C17.15 -2.32 16.6 -1.96 15.96 -1.66C15.32 -1.35 14.65 -1.2 13.94 -1.2C13.21 -1.2 12.65 -1.34 12.26 -1.61C11.88 -1.88 11.62 -2.3 11.47 -2.87C11.33 -3.44 11.26 -4.22 11.26 -5.23L11.26 -13.32L10.82 -13.61L10.8 -13.61L7.9 -13.3L7.9 -12.41L9.31 -12L9.31 -4.94C9.31 -3.1 9.62 -1.78 10.24 -0.96C10.85 -0.14 11.89 0.26 13.34 0.26C14.14 0.26 14.94 0.06 15.74 -0.34C16.54 -0.74 17.24 -1.2 17.83 -1.73L17.83 -0.79C17.83 -0.41 17.93 -0.14 18.12 0Z M25.34 -0.32C25.78 0.07 26.42 0.26 27.26 0.26C27.89 0.26 28.62 0.13 29.47 -0.13C30.32 -0.4 30.93 -0.67 31.3 -0.96L30.98 -1.87C30.7 -1.73 30.26 -1.59 29.69 -1.46C29.11 -1.34 28.59 -1.27 28.13 -1.27C27.65 -1.27 27.31 -1.33 27.12 -1.44C26.93 -1.55 26.8 -1.8 26.74 -2.17C26.67 -2.55 26.64 -3.2 26.64 -4.13L26.64 -11.9L30.89 -11.9L30.89 -13.32L26.64 -13.32L26.64 -16.73L25.54 -16.73C25.46 -16.38 25.34 -15.89 25.18 -15.26C25.02 -14.64 24.89 -14.21 24.79 -13.97C24.68 -13.6 24.5 -13.35 24.26 -13.22C24.14 -13.14 23.67 -13.02 22.87 -12.84L22.87 -11.9L24.7 -11.9L24.7 -2.42C24.7 -1.42 24.91 -0.72 25.34 -0.32Z M42.94 0C43.13 0.14 43.43 0.22 43.85 0.22C44.33 0.22 44.76 0.16 45.14 0.05C45.53 -0.06 45.76 -0.13 45.84 -0.14L45.86 -1.06L44.38 -1.06L44.38 -13.32L43.82 -13.61L43.8 -13.61L40.61 -13.3L40.61 -12.41L42.43 -12L42.43 -2.74C41.97 -2.32 41.42 -1.96 40.78 -1.66C40.14 -1.35 39.46 -1.2 38.76 -1.2C38.02 -1.2 37.46 -1.34 37.08 -1.61C36.7 -1.88 36.43 -2.3 36.29 -2.87C36.14 -3.44 36.07 -4.22 36.07 -5.23L36.07 -13.32L35.64 -13.61L35.62 -13.61L32.71 -13.3L32.71 -12.41L34.13 -12L34.13 -4.94C34.13 -3.1 34.44 -1.78 35.05 -0.96C35.67 -0.14 36.7 0.26 38.16 0.26C38.96 0.26 39.76 0.06 40.56 -0.34C41.36 -0.74 42.06 -1.2 42.65 -1.73L42.65 -0.79C42.65 -0.41 42.74 -0.14 42.94 0Z M48.02 -1.01L48.02 0L55.08 0L55.08 -0.98L51.89 -1.18L51.89 -10.27C52.43 -10.67 53.02 -11.01 53.66 -11.28C54.3 -11.55 55.08 -11.69 55.99 -11.69C56.23 -11.69 56.46 -11.66 56.68 -11.62C56.89 -11.57 57.03 -11.52 57.1 -11.47L57.1 -13.58C56.87 -13.65 56.63 -13.68 56.38 -13.68C55.59 -13.68 54.81 -13.47 54.04 -13.06C53.26 -12.64 52.68 -12.2 52.28 -11.75C51.89 -11.29 51.68 -11.05 51.65 -11.02L51.6 -11.02L51.65 -12.84L51.65 -13.22L51.19 -13.61L51.14 -13.61L48.1 -13.22L48.1 -12.14L49.94 -11.74L49.94 -1.15Z M59.6 -10.42C59.02 -9.36 58.73 -8.14 58.73 -6.74C58.73 -4.7 59.21 -3.02 60.18 -1.7C61.15 -0.39 62.64 0.26 64.66 0.26C65.7 0.26 66.69 -0.02 67.64 -0.58C68.6 -1.14 69.36 -1.94 69.95 -3C70.53 -4.06 70.82 -5.28 70.82 -6.67C70.82 -8.72 70.34 -10.4 69.37 -11.71C68.4 -13.02 66.91 -13.68 64.9 -13.68C63.86 -13.68 62.86 -13.4 61.91 -12.84C60.96 -12.28 60.19 -11.47 59.6 -10.42ZM67.63 -2.4C66.96 -1.46 66.01 -0.98 64.78 -0.98C63.46 -0.98 62.49 -1.53 61.86 -2.63C61.23 -3.72 60.91 -5.14 60.91 -6.89C60.91 -8.7 61.25 -10.07 61.93 -11.02C62.61 -11.96 63.57 -12.43 64.8 -12.43C66.11 -12.43 67.08 -11.88 67.7 -10.78C68.33 -9.67 68.64 -8.26 68.64 -6.53C68.64 -4.72 68.3 -3.34 67.63 -2.4Z M80.09 -18.14L80.09 -1.2L78.58 -1.03L78.58 0L83.78 0L83.78 -1.03L82.01 -1.22L82.01 -10.56C82.57 -10.99 83.22 -11.36 83.95 -11.68C84.69 -11.99 85.38 -12.14 86.02 -12.14C86.78 -12.14 87.37 -12 87.77 -11.71C88.17 -11.42 88.44 -10.99 88.57 -10.42C88.71 -9.84 88.78 -9.04 88.78 -8.02L88.78 -1.22L87.1 -1.03L87.1 0L92.47 0L92.47 -1.03L90.72 -1.22L90.72 -7.99C90.72 -9.37 90.61 -10.46 90.38 -11.27C90.16 -12.08 89.77 -12.67 89.21 -13.06C88.65 -13.44 87.86 -13.63 86.86 -13.63C85.96 -13.63 85.05 -13.42 84.12 -12.98C83.19 -12.55 82.47 -12.1 81.96 -11.64L82.01 -13.63L82.01 -19.34L81.55 -19.66L81.5 -19.66L77.95 -19.25L77.95 -18.36Z M95.22 -10.42C94.64 -9.36 94.34 -8.14 94.34 -6.74C94.34 -4.7 94.83 -3.02 95.8 -1.7C96.76 -0.39 98.26 0.26 100.27 0.26C101.31 0.26 102.31 -0.02 103.26 -0.58C104.21 -1.14 104.98 -1.94 105.56 -3C106.15 -4.06 106.44 -5.28 106.44 -6.67C106.44 -8.72 105.96 -10.4 104.99 -11.71C104.02 -13.02 102.53 -13.68 100.51 -13.68C99.47 -13.68 98.48 -13.4 97.52 -12.84C96.57 -12.28 95.8 -11.47 95.22 -10.42ZM103.25 -2.4C102.58 -1.46 101.62 -0.98 100.39 -0.98C99.08 -0.98 98.11 -1.53 97.48 -2.63C96.84 -3.72 96.53 -5.14 96.53 -6.89C96.53 -8.7 96.87 -10.07 97.55 -11.02C98.23 -11.96 99.18 -12.43 100.42 -12.43C101.73 -12.43 102.7 -11.88 103.32 -10.78C103.94 -9.67 104.26 -8.26 104.26 -6.53C104.26 -4.72 103.92 -3.34 103.25 -2.4Z M110.09 -17.21C110.09 -16.3 110.52 -15.84 111.38 -15.84L111.41 -15.84C111.9 -15.84 112.28 -15.98 112.55 -16.26C112.81 -16.54 112.94 -16.93 112.94 -17.42C112.94 -17.81 112.84 -18.13 112.63 -18.4C112.42 -18.66 112.08 -18.79 111.6 -18.79C111.14 -18.79 110.77 -18.64 110.5 -18.35C110.22 -18.05 110.09 -17.67 110.09 -17.21ZM108.6 -13.22L108.6 -12.07L110.5 -11.64L110.52 -0.6C110.52 0.84 110.38 2 110.11 2.88C109.84 3.76 109.36 4.3 108.67 4.51C108.4 4.61 108.14 4.68 107.88 4.72C107.62 4.76 107.43 4.77 107.3 4.75L107.4 5.74C107.46 5.78 107.66 5.82 107.99 5.83C108.32 5.85 108.58 5.85 108.77 5.83C111.22 5.61 112.44 3.62 112.44 -0.14L112.44 -13.22L111.98 -13.61L111.94 -13.61Z M117.56 -1.64C118.56 -0.37 119.99 0.26 121.85 0.26C122.74 0.26 123.64 0.1 124.52 -0.23C125.41 -0.56 126.09 -0.96 126.55 -1.44L126.17 -2.33C125.78 -1.99 125.24 -1.7 124.54 -1.46C123.83 -1.22 123.14 -1.1 122.47 -1.1C121.1 -1.1 120.03 -1.64 119.27 -2.7C118.51 -3.76 118.13 -5.14 118.13 -6.82L126.67 -6.82C126.77 -7.23 126.82 -7.94 126.82 -8.93C126.75 -10.46 126.32 -11.64 125.53 -12.46C124.74 -13.27 123.63 -13.68 122.21 -13.68C121.04 -13.68 119.99 -13.39 119.05 -12.8C118.12 -12.22 117.38 -11.4 116.86 -10.34C116.33 -9.29 116.06 -8.08 116.06 -6.72C116.06 -4.61 116.56 -2.92 117.56 -1.64ZM124.66 -7.94L118.15 -7.94C118.34 -10.95 119.54 -12.46 121.73 -12.46C122.74 -12.46 123.48 -12.14 123.97 -11.52C124.46 -10.9 124.71 -10.06 124.73 -9C124.73 -8.63 124.7 -8.28 124.66 -7.94Z"></path></g></g></svg>